<svg width="827" height="578" viewBox="0 0 827 578" fill="none" xmlns="http://www.w3.org/2000/svg">
<g clip-path="url(#clip0_72_368)">
<path d="M134.35 269.15C146.456 269.15 156.27 258.558 156.27 245.492C156.27 232.427 146.456 221.835 134.35 221.835C122.244 221.835 112.429 232.427 112.429 245.492C112.429 258.558 122.244 269.15 134.35 269.15Z" fill="#FFB8B8"/>
<path d="M60.2815 528.985L65.8319 539.162L104.844 520.9L96.6522 505.881L60.2815 528.985Z" fill="#FFB8B8"/>
<path d="M61.9446 524.434L72.8753 544.475L72.8757 544.476C73.7905 546.153 74.3901 548.008 74.6405 549.936C74.8909 551.863 74.787 553.825 74.3349 555.709C73.8828 557.593 73.0912 559.362 72.0054 560.916C70.9196 562.47 69.5609 563.778 68.0067 564.765L67.6221 565.009L49.7256 532.196L61.9446 524.434Z" fill="#2F2E41"/>
<path d="M124.592 565.647L135.534 565.646L140.739 520.098L124.59 520.099L124.592 565.647Z" fill="#FFB8B8"/>
<path d="M121.801 561.791L143.349 561.791H143.35C145.153 561.79 146.939 562.174 148.605 562.919C150.271 563.663 151.785 564.755 153.06 566.131C154.335 567.507 155.347 569.141 156.037 570.939C156.727 572.737 157.082 574.664 157.082 576.61V577.092L121.801 577.094L121.801 561.791Z" fill="#2F2E41"/>
<path d="M80.6021 538.051C79.9724 538.052 79.3514 537.892 78.7895 537.585C78.2276 537.279 77.7405 536.833 77.3677 536.286L66.8151 520.818C66.4932 520.346 66.2633 519.809 66.1392 519.238C66.0151 518.668 65.9996 518.076 66.0934 517.499C66.1872 516.922 66.3884 516.372 66.685 515.881C66.9816 515.39 67.3672 514.969 67.8187 514.644L114.776 480.796L86.4427 400.393L147.033 405.789L149.074 474.883C149.265 481.175 147.868 487.405 145.031 492.906C142.194 498.408 138.025 502.973 132.969 506.113L82.6086 537.469C81.9989 537.85 81.3067 538.051 80.6021 538.051Z" fill="#2F2E41"/>
<path d="M124.922 556.4C123.883 556.398 122.885 555.961 122.138 555.182C121.391 554.402 120.953 553.34 120.916 552.22L118.695 484.91L146.191 483.346L144.002 551.14C143.97 552.214 143.568 553.236 142.875 554.008C142.182 554.78 141.247 555.245 140.254 555.313L125.195 556.39C125.103 556.397 125.012 556.4 124.922 556.4Z" fill="#2F2E41"/>
<path d="M154.045 419.156C147.049 419.156 122.615 410.664 114.132 407.637C112.863 408.733 105.891 414.358 97.7538 413.33C92.7327 412.694 88.3123 409.627 84.6155 404.213C76.4519 392.256 86.535 340.978 96.4312 300.066C98.4152 291.797 103.293 284.679 110.038 280.21C116.784 275.741 124.872 274.269 132.603 276.102C138.206 277.437 143.353 280.432 147.466 284.75C151.579 289.068 154.494 294.538 155.885 300.546C157.749 308.731 156.146 318.359 154.976 325.391C154.425 328.696 153.991 331.307 154.139 332.59C154.714 337.549 157.904 415.321 155.853 418.642C155.634 418.996 155.002 419.156 154.045 419.156Z" fill="#FFD02B"/>
<path d="M128.453 419.293C129.577 418.39 130.505 417.232 131.169 415.9C131.834 414.568 132.22 413.095 132.3 411.585C132.38 410.075 132.152 408.564 131.633 407.159C131.113 405.754 130.315 404.489 129.293 403.453L129.727 309.21L109.159 312.907L115.201 404.382C113.702 406.349 112.924 408.841 113.014 411.386C113.104 413.931 114.056 416.352 115.69 418.19C117.323 420.028 119.525 421.156 121.877 421.359C124.23 421.562 126.569 420.827 128.453 419.293Z" fill="#FFB8B8"/>
<path d="M133.21 369.733H111.057C109.999 369.73 108.985 369.278 108.233 368.474C107.482 367.671 107.053 366.58 107.041 365.439L106.497 300.623C106.478 298.382 106.871 296.159 107.653 294.083C108.435 292.007 109.591 290.118 111.054 288.527C112.517 286.936 114.257 285.674 116.175 284.814C118.092 283.953 120.149 283.511 122.226 283.514C124.303 283.517 126.358 283.964 128.274 284.83C130.189 285.695 131.927 286.962 133.386 288.557C134.845 290.152 135.997 292.043 136.774 294.121C137.552 296.199 137.94 298.423 137.916 300.664L137.226 365.449C137.21 366.589 136.781 367.676 136.03 368.477C135.279 369.278 134.266 369.73 133.21 369.733Z" fill="#FFD02B"/>
<path d="M128.768 269.051C118.732 269.071 109.264 260.509 107.525 249.842C106.902 245.651 107.183 241.362 108.345 237.307C109.607 232.691 111.771 228.421 114.692 224.784C117.613 221.148 121.222 218.229 125.276 216.225C129.331 214.221 133.736 213.179 138.195 213.168C142.655 213.157 147.064 214.178 151.127 216.162C153.812 217.473 156.456 219.356 157.686 222.247C158.915 225.137 158.146 229.177 155.456 230.478C153.699 231.328 151.493 230.911 149.934 232.131C147.695 233.883 148.271 237.612 149.271 240.396C150.271 243.179 151.402 246.548 149.726 248.923C148.164 251.135 145.042 251.067 142.582 250.234C140.123 249.401 137.695 248.006 135.131 248.29C131.391 248.704 128.704 252.718 128.206 256.74C127.709 260.762 128.88 264.782 130.036 268.642L128.768 269.051Z" fill="#2F2E41"/>
<path d="M231.155 578H0.892489C0.655786 578 0.428778 577.899 0.261403 577.718C0.0940292 577.537 0 577.292 0 577.037C0 576.781 0.0940292 576.536 0.261403 576.356C0.428778 576.175 0.655786 576.074 0.892489 576.074H231.155C231.391 576.074 231.618 576.175 231.786 576.356C231.953 576.536 232.047 576.781 232.047 577.037C232.047 577.292 231.953 577.537 231.786 577.718C231.618 577.899 231.391 578 231.155 578Z" fill="#CCCCCC"/>
<path d="M812.274 418.555H240.332C236.428 418.55 232.685 416.874 229.924 413.895C227.164 410.916 225.611 406.876 225.606 402.662V22.0514C225.609 18.9645 226.747 16.005 228.77 13.8222C230.792 11.6394 233.534 10.4115 236.395 10.408H816.025C818.935 10.4115 821.724 11.6606 823.782 13.8812C825.839 16.1017 826.997 19.1124 827 22.2527V402.662C826.996 406.876 825.443 410.916 822.682 413.895C819.921 416.874 816.178 418.55 812.274 418.555Z" fill="#F2F2F2"/>
<path d="M793.782 398.49H260.747C252.933 398.49 246.577 392.065 246.577 384.169V52.7277C246.577 46.8713 251.287 42.1066 257.077 42.1066H797.278C803.164 42.1066 807.953 46.9499 807.953 52.9026V384.169C807.953 392.065 801.595 398.49 793.782 398.49Z" fill="white"/>
<path d="M826.795 24.0319H225.4V15.9407C225.405 11.7131 226.965 7.66062 229.735 4.6722C232.506 1.68378 236.262 0.00350543 240.179 0H812.015C815.933 0.00346978 819.689 1.68373 822.459 4.67216C825.23 7.66059 826.789 11.7131 826.795 15.9407V24.0319Z" fill="#3F3D56"/>
<path d="M252.259 16.1657C254.371 16.1657 256.082 14.3186 256.082 12.04C256.082 9.76136 254.371 7.91418 252.259 7.91418C250.148 7.91418 248.437 9.76136 248.437 12.04C248.437 14.3186 250.148 16.1657 252.259 16.1657Z" fill="white"/>
<path d="M266.77 16.1657C268.882 16.1657 270.593 14.3186 270.593 12.04C270.593 9.76136 268.882 7.91418 266.77 7.91418C264.659 7.91418 262.947 9.76136 262.947 12.04C262.947 14.3186 264.659 16.1657 266.77 16.1657Z" fill="white"/>
<path d="M281.281 16.1657C283.392 16.1657 285.104 14.3186 285.104 12.04C285.104 9.76136 283.392 7.91418 281.281 7.91418C279.17 7.91418 277.458 9.76136 277.458 12.04C277.458 14.3186 279.17 16.1657 281.281 16.1657Z" fill="white"/>
<path d="M514.619 114.577H410.369C408.814 114.577 407.324 113.91 406.225 112.724C405.126 111.538 404.509 109.929 404.509 108.252C404.509 106.575 405.126 104.966 406.225 103.78C407.324 102.594 408.814 101.928 410.369 101.928H514.619C516.173 101.928 517.664 102.594 518.763 103.78C519.862 104.966 520.479 106.575 520.479 108.252C520.479 109.929 519.862 111.538 518.763 112.724C517.664 113.91 516.173 114.577 514.619 114.577Z" fill="#CCCCCC"/>
<path d="M644.16 114.577H539.91C538.356 114.577 536.865 113.91 535.766 112.724C534.667 111.538 534.05 109.929 534.05 108.252C534.05 106.575 534.667 104.966 535.766 103.78C536.865 102.594 538.356 101.928 539.91 101.928H644.16C645.714 101.928 647.205 102.594 648.304 103.78C649.403 104.966 650.02 106.575 650.02 108.252C650.02 109.929 649.403 111.538 648.304 112.724C647.205 113.91 645.714 114.577 644.16 114.577Z" fill="#CCCCCC"/>
<path d="M644.16 138.543H462.802C461.248 138.543 459.757 137.877 458.658 136.691C457.559 135.505 456.942 133.896 456.942 132.219C456.942 130.541 457.559 128.932 458.658 127.746C459.757 126.56 461.248 125.894 462.802 125.894H644.16C645.714 125.894 647.205 126.56 648.304 127.746C649.403 128.932 650.02 130.541 650.02 132.219C650.02 133.896 649.403 135.505 648.304 136.691C647.205 137.877 645.714 138.543 644.16 138.543Z" fill="#CCCCCC"/>
<path d="M514.619 90.2773H410.369C408.816 90.2752 407.327 89.6079 406.23 88.4221C405.132 87.2363 404.516 85.6288 404.516 83.9528C404.516 82.2768 405.132 80.6693 406.23 79.4834C407.327 78.2976 408.816 77.6304 410.369 77.6283H514.619C515.389 77.6273 516.152 77.7901 516.863 78.1075C517.575 78.4248 518.222 78.8905 518.767 79.4779C519.312 80.0653 519.744 80.7629 520.039 81.5307C520.334 82.2985 520.486 83.1216 520.486 83.9528C520.486 84.784 520.334 85.607 520.039 86.3749C519.744 87.1427 519.312 87.8402 518.767 88.4276C518.222 89.015 517.575 89.4807 516.863 89.7981C516.152 90.1155 515.389 90.2783 514.619 90.2773Z" fill="#CCCCCC"/>
<path d="M571.987 90.6102H542.378C540.823 90.6102 539.333 89.9438 538.234 88.7577C537.135 87.5717 536.517 85.963 536.517 84.2857C536.517 82.6083 537.135 80.9996 538.234 79.8136C539.333 78.6275 540.823 77.9612 542.378 77.9612H571.987C573.541 77.9612 575.032 78.6275 576.131 79.8136C577.23 80.9996 577.847 82.6083 577.847 84.2857C577.847 85.963 577.23 87.5717 576.131 88.7577C575.032 89.9438 573.541 90.6102 571.987 90.6102Z" fill="#CCCCCC"/>
<path d="M439.978 138.543H410.369C408.816 138.541 407.327 137.874 406.23 136.688C405.132 135.502 404.516 133.895 404.516 132.219C404.516 130.543 405.132 128.935 406.23 127.749C407.327 126.563 408.816 125.896 410.369 125.894H439.978C440.748 125.893 441.511 126.056 442.223 126.373C442.935 126.691 443.582 127.156 444.127 127.744C444.671 128.331 445.104 129.029 445.399 129.796C445.694 130.564 445.846 131.387 445.846 132.219C445.846 133.05 445.694 133.873 445.399 134.641C445.104 135.408 444.671 136.106 444.127 136.693C443.582 137.281 442.935 137.746 442.223 138.064C441.511 138.381 440.748 138.544 439.978 138.543Z" fill="#CCCCCC"/>
<path d="M514.619 339.001H410.369C408.814 339.001 407.324 338.335 406.225 337.149C405.126 335.963 404.509 334.354 404.509 332.677C404.509 331 405.126 329.391 406.225 328.205C407.324 327.019 408.814 326.353 410.369 326.353H514.619C515.388 326.353 516.15 326.516 516.861 326.834C517.572 327.152 518.218 327.618 518.763 328.205C519.307 328.792 519.738 329.489 520.033 330.257C520.327 331.024 520.479 331.846 520.479 332.677C520.479 333.508 520.327 334.33 520.033 335.097C519.738 335.865 519.307 336.562 518.763 337.149C518.218 337.736 517.572 338.202 516.861 338.52C516.15 338.838 515.388 339.001 514.619 339.001Z" fill="#CCCCCC"/>
<path d="M644.16 339.001H539.91C538.356 339.001 536.865 338.335 535.766 337.149C534.667 335.963 534.05 334.354 534.05 332.677C534.05 331 534.667 329.391 535.766 328.205C536.865 327.019 538.356 326.353 539.91 326.353H644.16C644.93 326.353 645.692 326.516 646.403 326.834C647.114 327.152 647.76 327.618 648.304 328.205C648.848 328.792 649.28 329.489 649.574 330.257C649.869 331.024 650.02 331.846 650.02 332.677C650.02 333.508 649.869 334.33 649.574 335.097C649.28 335.865 648.848 336.562 648.304 337.149C647.76 337.736 647.114 338.202 646.403 338.52C645.692 338.838 644.93 339.001 644.16 339.001Z" fill="#CCCCCC"/>
<path d="M644.16 362.968H462.802C461.248 362.968 459.757 362.302 458.658 361.116C457.559 359.929 456.942 358.321 456.942 356.643C456.942 354.966 457.559 353.357 458.658 352.171C459.757 350.985 461.248 350.319 462.802 350.319H644.16C644.93 350.318 645.693 350.481 646.405 350.798C647.117 351.116 647.764 351.581 648.309 352.169C648.854 352.756 649.286 353.454 649.581 354.221C649.876 354.989 650.028 355.812 650.028 356.643C650.028 357.475 649.876 358.298 649.581 359.066C649.286 359.833 648.854 360.531 648.309 361.118C647.764 361.706 647.117 362.171 646.405 362.489C645.693 362.806 644.93 362.969 644.16 362.968Z" fill="#CCCCCC"/>
<path d="M514.619 314.702H410.369C408.814 314.702 407.324 314.036 406.225 312.85C405.126 311.664 404.509 310.055 404.509 308.378C404.509 306.7 405.126 305.092 406.225 303.906C407.324 302.72 408.814 302.053 410.369 302.053H514.619C516.173 302.053 517.664 302.72 518.763 303.906C519.862 305.092 520.479 306.7 520.479 308.378C520.479 310.055 519.862 311.664 518.763 312.85C517.664 314.036 516.173 314.702 514.619 314.702Z" fill="#CCCCCC"/>
<path d="M571.987 315.035H542.378C540.823 315.035 539.333 314.369 538.234 313.183C537.135 311.996 536.517 310.388 536.517 308.71C536.517 307.033 537.135 305.424 538.234 304.238C539.333 303.052 540.823 302.386 542.378 302.386H571.987C573.541 302.386 575.032 303.052 576.131 304.238C577.23 305.424 577.847 307.033 577.847 308.71C577.847 310.388 577.23 311.996 576.131 313.183C575.032 314.369 573.541 315.035 571.987 315.035Z" fill="#CCCCCC"/>
<path d="M439.978 362.968H410.369C408.814 362.968 407.324 362.302 406.225 361.116C405.126 359.929 404.509 358.321 404.509 356.643C404.509 354.966 405.126 353.357 406.225 352.171C407.324 350.985 408.814 350.319 410.369 350.319H439.978C440.748 350.318 441.511 350.481 442.223 350.798C442.935 351.116 443.582 351.581 444.127 352.169C444.672 352.756 445.104 353.454 445.399 354.221C445.694 354.989 445.846 355.812 445.846 356.643C445.846 357.475 445.694 358.298 445.399 359.066C445.104 359.833 444.672 360.531 444.127 361.118C443.582 361.706 442.935 362.171 442.223 362.489C441.511 362.806 440.748 362.969 439.978 362.968Z" fill="#CCCCCC"/>
<path d="M487.392 271.103C485.18 271.109 483.055 270.17 481.48 268.493L442.292 226.729C441.523 225.909 440.912 224.933 440.495 223.856C440.078 222.779 439.864 221.624 439.864 220.457C439.864 219.29 440.078 218.135 440.495 217.058C440.912 215.982 441.523 215.005 442.292 214.185L481.322 172.59C482.948 170.866 485.139 169.903 487.418 169.911C489.698 169.918 491.883 170.896 493.499 172.632C495.116 174.381 496.025 176.752 496.025 179.223C496.025 181.694 495.116 184.065 493.499 185.814L464.497 217.115C463.593 218.093 463.086 219.417 463.086 220.798C463.086 222.178 463.593 223.503 464.497 224.48L493.342 255.611C494.52 256.88 495.322 258.497 495.647 260.259C495.973 262.02 495.806 263.846 495.169 265.505C494.532 267.164 493.452 268.582 492.068 269.578C490.683 270.575 489.056 271.106 487.392 271.103V271.103Z" fill="#FFD02B"/>
<path d="M549.835 271.103C548.171 271.106 546.544 270.575 545.159 269.578C543.775 268.582 542.696 267.164 542.058 265.505C541.421 263.846 541.255 262.02 541.58 260.258C541.905 258.497 542.708 256.88 543.886 255.611L572.731 224.48C573.634 223.503 574.142 222.178 574.142 220.798C574.142 219.417 573.634 218.093 572.731 217.115L543.728 185.814C542.926 184.949 542.29 183.921 541.856 182.79C541.422 181.659 541.198 180.447 541.198 179.223C541.199 177.999 541.422 176.787 541.856 175.656C542.29 174.525 542.926 173.497 543.728 172.631C545.344 170.896 547.529 169.918 549.809 169.91C552.089 169.903 554.279 170.866 555.905 172.59L594.935 214.185C595.704 215.005 596.315 215.982 596.732 217.058C597.149 218.135 597.364 219.29 597.364 220.457C597.364 221.624 597.149 222.779 596.732 223.856C596.315 224.933 595.704 225.909 594.935 226.729L555.747 268.493C554.172 270.17 552.048 271.108 549.835 271.103Z" fill="#FFD02B"/>
</g>
<defs>
<clipPath id="clip0_72_368">
<rect width="827" height="578" fill="white"/>
</clipPath>
</defs>
</svg>
