<svg width="1680" height="110" viewBox="0 0 1680 110" fill="none" xmlns="http://www.w3.org/2000/svg">
<path d="M1230.05 58.2633C1148.85 68.1542 1070.23 85.8825 989.254 96.635C873.908 111.962 753.788 112.888 638.624 96.9925C526.708 81.5833 410.662 44 300.076 24.9058C202.006 7.96583 94.934 0.989996 2.86102e-05 22.1558V110L1680 110V84.9292C1536.55 49.3129 1380.94 40.0909 1230.05 58.2633V58.2633Z" fill="#012232"/>
<path d="M1230.05 58.2633C1148.85 68.1542 1070.23 85.8825 989.254 96.635C873.908 111.962 753.788 112.888 638.624 96.9925C526.708 81.5833 410.662 44 300.076 24.9058C202.006 7.96583 94.934 0.989996 2.86102e-05 22.1558V110L1680 110V84.9292C1536.55 49.3129 1380.94 40.0909 1230.05 58.2633V58.2633Z" fill="#012232"/>
</svg>
